<svg id="polygon" xmlns="http://www.w3.org/2000/svg" xmlns:xlink="http://www.w3.org/1999/xlink" viewBox="0 0 744.4 756.88"><defs><style>.cls-1{fill:none;}.cls-2{fill:#4a90e2;}.cls-3{clip-path:url(#clip-path);}.cls-4{fill:#6d2323;}.cls-5{fill:#fff;}.cls-6{clip-path:url(#clip-path-2);}.cls-7{clip-path:url(#clip-path-3);}.cls-8{clip-path:url(#clip-path-4);}</style><clipPath id="clip-path" transform="translate(-443.67 -52.75)"><circle id="SVGID" class="cls-1" cx="742.16" cy="305" r="87.65"/></clipPath><clipPath id="clip-path-2" transform="translate(-443.67 -52.75)"><rect id="SVGID-2" data-name="SVGID" class="cls-1" x="422.41" y="150.21" width="318.47" height="318.47"/></clipPath><clipPath id="clip-path-3" transform="translate(-443.67 -52.75)"><rect id="SVGID-3" data-name="SVGID" class="cls-1" x="375.78" y="305" width="371.71" height="261.34"/></clipPath><clipPath id="clip-path-4" transform="translate(-443.67 -52.75)"><rect id="SVGID-4" data-name="SVGID" class="cls-1" x="435.89" y="66.35" width="304.99" height="477.3"/></clipPath></defs><polygon class="cls-2" points="0 139.29 0 417.86 241.25 557.14 482.5 417.86 482.5 139.29 241.25 0 0 139.29"/><g class="cls-3"><path class="cls-4" d="M830.78,305.06a6,6,0,0,1,4.26,1.59V305h-5.25c0,.05,0,.09,0,.13A7.66,7.66,0,0,1,830.78,305.06Z" transform="translate(-443.67 -52.75)"/><path class="cls-5" d="M829.79,305a88.3,88.3,0,1,0-88.29,89l.66,0V305Z" transform="translate(-443.67 -52.75)"/><path class="cls-4" d="M833.21,329.34a114.78,114.78,0,0,1-7.29,27.08c-2.92,6.87-6.22,14.44-11.95,19.45-4.47,3.92-10.25,1-11-4.53a18.67,18.67,0,0,1-.15-2.22A88,88,0,0,1,742.16,394v3.94H835V323.47c-.6,1.12-1.25,2.26-1.88,3.45A7,7,0,0,1,833.21,329.34Z" transform="translate(-443.67 -52.75)"/></g><g class="cls-6"><path class="cls-5" d="M884,305.53A143.16,143.16,0,1,1,740.87,162.38,143.15,143.15,0,0,1,884,305.53ZM740.87,189.39A115.53,115.53,0,1,0,856.4,304.92,115.53,115.53,0,0,0,740.87,189.39Z" transform="translate(-443.67 -52.75)"/></g><path class="cls-1" d="M702.84,239.84V725.08h485.23V239.84Zm130.37,89.5a114.78,114.78,0,0,1-7.29,27.08c-2.92,6.87-6.22,14.44-11.95,19.45-4.47,3.92-10.25,1-11-4.53-1.31-10.23,5.3-19.41,10.22-27.76a39.88,39.88,0,0,0,2.21-4.37,5.91,5.91,0,0,1,.25-5.77c1-1.72,1.84-3.48,2.68-5.26,0-.36.11-.72.16-1.1a51.58,51.58,0,0,1,1.7-7.75c0-.15,0-.3,0-.45-2-3.37,0-7.93,3.3-9.36a9.38,9.38,0,0,1,7.2-4.46A6,6,0,0,1,837,311a5.57,5.57,0,0,1,1,3.37c-.19,4.95-2.57,8.41-4.8,12.6A7,7,0,0,1,833.21,329.34Z" transform="translate(-443.67 -52.75)"/><polygon class="cls-1" points="663.48 756.88 396.47 756.88 410.2 488.59 677.21 488.59 663.48 756.88"/><g class="cls-7"><g class="cls-8"><path class="cls-5" d="M943.36,305c0,111.84-90.66,202.49-202.49,202.49S538.38,416.84,538.38,305,629,102.51,740.87,102.51,943.36,193.17,943.36,305ZM742.16,129.14A175.87,175.87,0,1,0,918,305,175.87,175.87,0,0,0,742.16,129.14Z" transform="translate(-443.67 -52.75)"/></g></g></svg>