<?xml version="1.0"?>
<svg xmlns="http://www.w3.org/2000/svg" xmlns:xlink="http://www.w3.org/1999/xlink" xmlns:svgjs="http://svgjs.com/svgjs" version="1.1" width="512" height="512" x="0" y="0" viewBox="0 0 24 24" style="enable-background:new 0 0 512 512" xml:space="preserve" class=""><g><path xmlns="http://www.w3.org/2000/svg" d="m16.5 10h-9c-.276 0-.5-.224-.5-.5v-9c0-.276.224-.5.5-.5h9c.276 0 .5.224.5.5v9c0 .276-.224.5-.5.5zm-8.5-1h8v-8h-8z" fill="#fffbfb" data-original="#000000" style="" class=""/><path xmlns="http://www.w3.org/2000/svg" d="m13.5 4h-3c-.276 0-.5-.224-.5-.5v-3c0-.276.224-.5.5-.5h3c.276 0 .5.224.5.5v3c0 .276-.224.5-.5.5zm-2.5-1h2v-2h-2z" fill="#fffbfb" data-original="#000000" style="" class=""/><path xmlns="http://www.w3.org/2000/svg" d="m12 19h-9.5c-.276 0-.5-.224-.5-.5v-9c0-.276.224-.5.5-.5h9.5c.276 0 .5.224.5.5v9c0 .276-.224.5-.5.5zm-9-1h8.5v-8h-8.5z" fill="#fffbfb" data-original="#000000" style="" class=""/><path xmlns="http://www.w3.org/2000/svg" d="m8.5 13h-3c-.276 0-.5-.224-.5-.5v-3c0-.276.224-.5.5-.5h3c.276 0 .5.224.5.5v3c0 .276-.224.5-.5.5zm-2.5-1h2v-2h-2z" fill="#fffbfb" data-original="#000000" style="" class=""/><path xmlns="http://www.w3.org/2000/svg" d="m21.5 19h-9.5c-.276 0-.5-.224-.5-.5v-9c0-.276.224-.5.5-.5h9.5c.276 0 .5.224.5.5v9c0 .276-.224.5-.5.5zm-9-1h8.5v-8h-8.5z" fill="#fffbfb" data-original="#000000" style="" class=""/><path xmlns="http://www.w3.org/2000/svg" d="m18.5 13h-3c-.276 0-.5-.224-.5-.5v-3c0-.276.224-.5.5-.5h3c.276 0 .5.224.5.5v3c0 .276-.224.5-.5.5zm-2.5-1h2v-2h-2z" fill="#fffbfb" data-original="#000000" style="" class=""/><path xmlns="http://www.w3.org/2000/svg" d="m23.5 24h-4c-.276 0-.5-.224-.5-.5v-1.5h-4v1.5c0 .276-.224.5-.5.5h-5c-.276 0-.5-.224-.5-.5v-1.5h-4v1.5c0 .276-.224.5-.5.5h-4c-.276 0-.5-.224-.5-.5v-5c0-.276.224-.5.5-.5h23c.276 0 .5.224.5.5v5c0 .276-.224.5-.5.5zm-3.5-1h3v-4h-22v4h3v-1.5c0-.276.224-.5.5-.5h5c.276 0 .5.224.5.5v1.5h4v-1.5c0-.276.224-.5.5-.5h5c.276 0 .5.224.5.5z" fill="#fffbfb" data-original="#000000" style="" class=""/></g></svg>
